<?xml version="1.0" encoding="UTF-8"?>
<!DOCTYPE svg PUBLIC "-//W3C//DTD SVG 1.1//EN" "http://www.w3.org/Graphics/SVG/1.1/DTD/svg11.dtd">
<!-- Creator: CorelDRAW -->
<svg xmlns="http://www.w3.org/2000/svg" xml:space="preserve" width="162.078mm" height="205.016mm" style="shape-rendering:geometricPrecision; text-rendering:geometricPrecision; image-rendering:optimizeQuality; fill-rule:evenodd; clip-rule:evenodd"
viewBox="0 0 162.078 205.016"
 xmlns:xlink="http://www.w3.org/1999/xlink">
 <defs>
  <style type="text/css">
   <![CDATA[
    .fil0 {fill:#632929}
    .fil1 {fill:#7BC4A0}
    .fil2 {fill:#DA251D}
   ]]>
  </style>
 </defs>
 <g id="Layer_x0020_1">
  <metadata id="CorelCorpID_0Corel-Layer"/>
  <g id="_203912152">
   <path id="_203911192" class="fil0" d="M53.5939 141.373l6.3978 0c15.5266,-0.4754 33.427,-1.6385 48.759,-2.2939l0 -31.6787c0,-6.0653 -0.3884,-10.069 -1.1356,-11.9812 -0.5976,-1.4643 -1.8224,-2.7192 -3.6749,-3.7649 -2.5099,-1.4042 -5.1691,-2.0914 -7.9776,-2.0914l-4.1833 0 0 -3.257 6.6572 0c1.352,-1.5532 4.6915,-3.9703 4.7612,-11.5334 0.0602,-6.5286 -2.6364,-13.4906 -1.7634,-14.031 5.3306,-3.3024 5.9473,11.0387 8.4785,11.7292 5.4613,1.4895 13.3313,-13.8043 14.1937,-17.1614l0.8107 -6.7078 0.1554 -2.8104c-0.2584,-0.5359 -0.4493,-2.66 -0.4967,-3.3987 -0.0447,-0.7013 -0.6078,-2.4637 -0.8848,-3.1769 -2.6871,-6.9125 -8.7507,-11.5813 -11.3233,-19.3064 -0.2058,-2.2205 -0.513,-6.099 2.776,-4.9489 7.4713,2.6115 5.191,16.0798 14.1383,18.5199 9.9913,2.7253 3.5452,-31.1724 11.2753,-29.5215 4.8249,1.316 -0.3536,27.3737 -0.812,29.1239 -1.6194,5.936 -11.865,25.3942 -6.674,28.9518 3.2615,2.235 9.3108,-8.3225 11.19,-12.64 0.872,-2.0041 2.687,-15.1622 5.9318,-14.2771 1.3021,0.3549 1.8529,1.0768 2.1033,2 1.6057,5.9136 -6.5468,19.2567 -3.4144,22.2945 1.8883,1.8319 5.0013,-0.0675 6.9305,-1.5683 1.7823,-1.4931 2.1809,-4.0923 4.9827,-3.3279l0.3272 0.293 0.276 0.4829c4.6508,8.1506 -15.855,12.1658 -18.8277,13.0018l-13.9827 2.7072c-6.6848,1.3173 -15.3683,10.4549 -21.9192,15.3056l35.8749 -0.0001 0 3.257 -4.213 0c-2.7787,0 -5.4379,0.6573 -7.9478,2.0019 -1.8822,0.9259 -3.1374,2.3604 -3.8245,4.2426 -0.6574,1.9126 -0.9859,5.7667 -0.9859,11.5931l-0.0002 31.2142c7.7516,-0.036 13.753,0.3087 16.8113,1.3217 3.7572,1.0476 5.6755,3.7871 6.1629,6.3465 0.2006,1.0591 0.1551,2.1078 -0.1057,3.0245 -0.2962,1.0393 -0.8773,1.9246 -1.7071,2.5123 -1.2976,0.9196 -3.0412,1.0796 -5.0517,-0.0571 -0.8921,-0.5 -1.211,-1.6279 -0.7111,-2.5201 0.4975,-0.8921 1.6286,-1.2116 2.5203,-0.711 0.5835,0.3301 0.9436,0.3886 1.1049,0.273 0.1175,-0.0822 0.2166,-0.264 0.2857,-0.5124 0.1067,-0.3677 0.1178,-0.8237 0.023,-1.3162 -0.2604,-1.3802 -1.353,-2.8728 -3.5234,-3.4798 -21.2256,-7.5511 -124.042,13.1994 -128.502,-9.5986 -0.2185,-1.1112 -0.2228,-2.2816 0.0129,-3.5137 0.7044,-3.705 2.3299,-6.0792 4.3311,-7.4617 1.0708,-0.7419 2.2503,-1.1863 3.4608,-1.3925 1.1783,-0.2009 2.3654,-0.1681 3.489,0.0479 2.5462,0.4837 4.8615,1.9289 6.0818,3.6932 0.933,1.3487 1.3645,3.0056 1.3121,4.5307 -0.0368,1.0437 -0.2998,2.0495 -0.7886,2.8877 -0.5471,0.9446 -1.3662,1.6729 -2.455,2.04 -0.9411,0.3147 -2.0373,0.3358 -3.2685,-0.0548 -0.9732,-0.3048 -1.5138,-1.3453 -1.2068,-2.3185 0.3062,-0.973 1.3449,-1.5138 2.3181,-1.2072 0.4352,0.1367 0.7582,0.15 0.9818,0.0747 0.1712,-0.0567 0.3189,-0.1991 0.4305,-0.3948 0.1767,-0.3045 0.2735,-0.7069 0.2896,-1.1591 0.0262,-0.7678 -0.1917,-1.6055 -0.6671,-2.2888 -0.6978,-1.0099 -2.1186,-1.8559 -3.736,-2.1643 -0.719,-0.1363 -1.4586,-0.1612 -2.1665,-0.0412 -0.677,0.1153 -1.3475,0.371 -1.9673,0.7989 -1.2544,0.868 -2.2979,2.4803 -2.8005,5.1168 -0.146,0.7612 -0.1467,1.4596 -0.0223,2.0953 0.8726,4.4561 8.7634,7.3749 20.2938,8.1135l-0.0001 -33.8992c0,-6.0653 -0.3885,-10.069 -1.1356,-11.9812 -0.5975,-1.4643 -1.7926,-2.7192 -3.5854,-3.7649 -2.5696,-1.4042 -5.2586,-2.0914 -8.0673,-2.0914l-4.183 0 0 -3.257 35.5772 0c-6.5508,-4.8509 -15.2328,-13.9885 -21.9179,-15.3056l-13.9822 -2.7071c-2.973,-0.8361 -23.479,-4.8519 -18.828,-13.0016l0.2757 -0.4833 0.3278 -0.2931c2.8013,-0.7639 3.2004,1.8351 4.9831,3.3278 1.9287,1.5013 5.0417,3.4006 6.93,1.569 3.1326,-3.0382 -5.0202,-16.3808 -3.4145,-22.2949 0.2505,-0.9232 0.8013,-1.6453 2.1032,-2.0002 3.2448,-0.8848 5.0595,12.2733 5.9322,14.2774 1.8786,4.3175 7.9283,14.8748 11.1899,12.6396 5.1911,-3.5572 -5.0547,-23.0155 -6.6741,-28.9513 -0.4587,-1.7503 -5.6364,-27.8078 -0.8125,-29.1244 7.7307,-1.6503 1.2838,32.2471 11.2759,29.5228 8.9476,-2.4411 6.6665,-15.9092 14.1386,-18.5208 3.2884,-1.1498 2.9815,2.7285 2.7756,4.9489 -2.5731,7.7248 -8.6362,12.3942 -11.3233,19.3066 -0.2767,0.7127 -0.8398,2.4755 -0.8853,3.1761 -0.0468,0.7395 -0.2382,2.864 -0.4959,3.3994l0.155 2.8106 0.811 6.7071c0.8616,3.357 8.7325,18.6514 14.1939,17.162 2.5306,-0.691 3.1472,-15.0321 8.4779,-11.7297 0.8726,0.541 -1.8239,7.5032 -1.7631,14.0318 0.0695,7.5631 3.4076,9.9797 4.7593,11.533l7.0446 -0.0001 0 3.257 -4.3027 0c-2.8087,0 -5.4378,0.6573 -7.9478,2.0019 -1.8227,0.9259 -3.0777,2.3604 -3.7649,4.2426 -0.717,1.9126 -1.0755,5.7667 -1.0755,11.5931l-0.0001 33.9725zm82.7541 35.2573c0.9739,0.3051 1.5151,1.3456 1.2076,2.3187 -0.3061,0.9729 -1.3464,1.5136 -2.3188,1.2072 -0.4344,-0.1367 -0.7573,-0.15 -0.982,-0.0747 -0.1698,0.0566 -0.3183,0.1989 -0.4299,0.3947 -0.1768,0.3046 -0.2733,0.707 -0.2904,1.159 -0.0259,0.768 0.1936,1.6057 0.6681,2.2889 0.6974,1.0099 2.1183,1.8561 3.7349,2.1644 0.7197,0.1363 1.4589,0.1612 2.1677,0.0412 0.6765,-0.1153 1.3465,-0.371 1.9667,-0.7989 1.2549,-0.868 2.2972,-2.4802 2.8012,-5.1169 0.1442,-0.7613 0.1465,-1.4595 0.022,-2.0954 -0.8479,-4.3297 -8.3212,-7.2081 -19.3225,-8.0455l-0.0002 13.9373c0,6.006 0.3586,9.9796 1.1356,11.8919 0.5676,1.4642 1.7627,2.7191 3.5855,3.765 2.5695,1.4042 5.2587,2.1212 8.0374,2.1212l4.2129 0 0 3.2269 -50.7645 0 0 -3.2269 4.1831 0c4.8405,0 8.396,-1.434 10.6072,-4.3025 1.4637,-1.8525 2.1811,-6.3643 2.1811,-13.4756l0 -14.2506c-16.6957,0.2515 -37.536,1.6546 -55.1567,2.4257l-0.0001 11.8249c0,6.006 0.3885,9.9796 1.1355,11.8919 0.5977,1.4642 1.8227,2.7191 3.705,3.765 2.5098,1.4042 5.1393,2.1212 7.9479,2.1212l4.3026 0 0 3.2269 -50.8541 0 0 -3.2269 4.1828 0c4.9002,0 8.4558,-1.434 10.6969,-4.3025 1.3745,-1.8525 2.0917,-6.3643 2.0917,-13.4756l-0.0001 -11.3258c-8.2216,0.0693 -14.5965,-0.2608 -17.7814,-1.3161 -3.7584,-1.0476 -5.6761,-3.7871 -6.1633,-6.3466 -0.201,-1.059 -0.1556,-2.1076 0.105,-3.0245 0.2975,-1.0392 0.8772,-1.9246 1.7077,-2.5122 1.2975,-0.9195 3.0419,-1.0798 5.051,0.0571 0.8925,0.4999 1.2118,1.6278 0.7114,2.52 -0.4984,0.8922 -1.6284,1.2116 -2.52,0.7111 -0.585,-0.3301 -0.9438,-0.3887 -1.1047,-0.273 -0.1179,0.0822 -0.2169,0.2639 -0.2854,0.5124 -0.1066,0.3677 -0.1184,0.8236 -0.0247,1.3162 0.2618,1.3801 1.3545,2.8729 3.5245,3.4798 15.4764,5.5056 100.012,-9.2529 122.927,2.6254 4.2436,2.1998 6.3743,6.2405 5.562,10.4869 -0.705,3.705 -2.3303,6.079 -4.3319,7.4617 -1.0713,0.7418 -2.25,1.1862 -3.4611,1.3924 -1.1777,0.201 -2.3654,0.1682 -3.4882,-0.0478 -2.5471,-0.4837 -4.8615,-1.9289 -6.0814,-3.6932 -0.9341,-1.3488 -1.3648,-3.0056 -1.3123,-4.5306 0.0357,-1.0438 0.2993,-2.0496 0.7876,-2.8879 0.5482,-0.9446 1.3674,-1.6728 2.4546,-2.0398 0.942,-0.3148 2.0389,-0.3359 3.2691,0.0545z"/>
   <path id="_203911672" class="fil1" d="M51.2017 40.9646c3.7414,0 6.7754,3.0341 6.7754,6.7754 -0.0001,3.7411 -3.034,6.7753 -6.7753,6.7753 -3.7412,0 -6.7754,-3.0341 -6.7754,-6.7753 -0.0001,-3.7413 3.0342,-6.7754 6.7753,-6.7754z"/>
   <path id="_203911432" class="fil2" d="M102.526 37.5828c5.0364,0 9.1209,4.0844 9.1209,9.1207 -0.0001,5.0361 -4.0845,9.1206 -9.1207,9.1206 -5.0363,-0.0001 -9.1206,-4.0844 -9.1206,-9.1206 -0.0002,-5.0364 4.0844,-9.1207 9.1204,-9.1207z"/>
   <path id="_203911864" class="fil2" d="M74.9099 56.9143c5.0361,0 9.1206,4.0844 9.1206,9.1207 -0.0002,5.0363 -4.0843,9.1205 -9.1205,9.1205 -5.0365,-0.0001 -9.1207,-4.0842 -9.1207,-9.1205 0,-5.0363 4.0844,-9.1207 9.1206,-9.1207z"/>
   <path id="_203912920" class="fil2" d="M64.3234 9.9661c5.0364,0 9.1208,4.0844 9.1208,9.1209 0,5.0363 -4.0843,9.1206 -9.1206,9.1206 -5.0363,0 -9.1206,-4.0843 -9.1206,-9.1206 -0.0002,-5.0366 4.0844,-9.1208 9.1204,-9.1209z"/>
   <path id="_203912296" class="fil1" d="M91.2455 0c3.7412,0 6.7756,3.0343 6.7756,6.7753 -0.0001,3.7413 -3.0343,6.7756 -6.7754,6.7756 -3.7413,-0.0002 -6.7755,-3.0342 -6.7755,-6.7756 -0.0001,-3.7412 3.0342,-6.7751 6.7753,-6.7753z"/>
   <path id="_203912320" class="fil1" d="M149.701 69.0414c3.7411,0 6.7753,3.0341 6.7753,6.7754 -0.0001,3.7412 -3.0342,6.7753 -6.7753,6.7753 -3.7414,0 -6.7754,-3.0341 -6.7754,-6.7753 -0.0001,-3.7413 3.0341,-6.7754 6.7754,-6.7754z"/>
   <path id="_203912560" class="fil1" d="M82.5005 32.2192c3.741,0 6.7753,3.0344 6.7753,6.7756 -0.0002,3.7409 -3.0341,6.7751 -6.7753,6.7751 -3.7413,-0.0001 -6.7754,-3.0341 -6.7754,-6.7751 -0.0001,-3.7413 3.0342,-6.7755 6.7754,-6.7756z"/>
   <path id="_203912728" class="fil1" d="M94.4676 68.5812c3.7411,0 6.7754,3.0341 6.7754,6.7753 -0.0002,3.7413 -3.0342,6.7754 -6.7754,6.7754 -3.7414,0 -6.7752,-3.0341 -6.7752,-6.7754 -0.0001,-3.7413 3.0339,-6.7753 6.7752,-6.7753z"/>
   <path id="_203911048" class="fil1" d="M104.133 18.8712c3.7413,0 6.7756,3.0343 6.7756,6.7755 0,3.7412 -3.0342,6.7754 -6.7755,6.7754 -3.7411,-0.0001 -6.7751,-3.0341 -6.7751,-6.7754 -0.0001,-3.7413 3.0341,-6.7753 6.775,-6.7755z"/>
  </g>
 </g>
</svg>
